<svg xmlns="http://www.w3.org/2000/svg" viewBox="0 0 64 64" width="64" height="64" role="img" aria-label="Embedded">
  <rect x="18" y="18" width="28" height="28" rx="3" fill="#2e8555"/>
  <rect x="24" y="24" width="16" height="16" rx="2" fill="#fff" opacity="0.9"/>
  <g stroke="#2e8555" stroke-width="3" stroke-linecap="round">
    <line x1="24" y1="14" x2="24" y2="18"/>
    <line x1="32" y1="14" x2="32" y2="18"/>
    <line x1="40" y1="14" x2="40" y2="18"/>
    <line x1="24" y1="46" x2="24" y2="50"/>
    <line x1="32" y1="46" x2="32" y2="50"/>
    <line x1="40" y1="46" x2="40" y2="50"/>
    <line x1="14" y1="24" x2="18" y2="24"/>
    <line x1="14" y1="32" x2="18" y2="32"/>
    <line x1="14" y1="40" x2="18" y2="40"/>
    <line x1="46" y1="24" x2="50" y2="24"/>
    <line x1="46" y1="32" x2="50" y2="32"/>
    <line x1="46" y1="40" x2="50" y2="40"/>
  </g>
</svg>
