<svg xmlns="http://www.w3.org/2000/svg" viewBox="-250 -200 500 400" role="img">
<title>Een goudgele gevulde cirkel met een dikke oranje rand</title>
<rect x="-250" y="-200" width="500" height="400" fill="white"/>
<polygon points="0,0 16.9,-2.43 32.44,-9.52 45.34,-20.71 54.58,-35.08 59.39,-51.46 59.39,-68.54 54.58,-84.92 45.34,-99.29 32.44,-110.48 16.9,-117.57 0,-120 -16.9,-117.57 -32.44,-110.48 -45.34,-99.29 -54.58,-84.92 -59.39,-68.54 -59.39,-51.46 -54.58,-35.08 -45.34,-20.71 -32.44,-9.52 -16.9,-2.43 0,0" fill="gold" fill-rule="evenodd"/>
<line x1="0" y1="0" x2="16.9" y2="-2.43" stroke="orange" stroke-width="4" stroke-linecap="round"/>
<line x1="16.9" y1="-2.43" x2="32.44" y2="-9.52" stroke="orange" stroke-width="4" stroke-linecap="round"/>
<line x1="32.44" y1="-9.52" x2="45.34" y2="-20.71" stroke="orange" stroke-width="4" stroke-linecap="round"/>
<line x1="45.34" y1="-20.71" x2="54.58" y2="-35.08" stroke="orange" stroke-width="4" stroke-linecap="round"/>
<line x1="54.58" y1="-35.08" x2="59.39" y2="-51.46" stroke="orange" stroke-width="4" stroke-linecap="round"/>
<line x1="59.39" y1="-51.46" x2="59.39" y2="-68.54" stroke="orange" stroke-width="4" stroke-linecap="round"/>
<line x1="59.39" y1="-68.54" x2="54.58" y2="-84.92" stroke="orange" stroke-width="4" stroke-linecap="round"/>
<line x1="54.58" y1="-84.92" x2="45.34" y2="-99.29" stroke="orange" stroke-width="4" stroke-linecap="round"/>
<line x1="45.34" y1="-99.29" x2="32.44" y2="-110.48" stroke="orange" stroke-width="4" stroke-linecap="round"/>
<line x1="32.44" y1="-110.48" x2="16.9" y2="-117.57" stroke="orange" stroke-width="4" stroke-linecap="round"/>
<line x1="16.9" y1="-117.57" x2="0" y2="-120" stroke="orange" stroke-width="4" stroke-linecap="round"/>
<line x1="0" y1="-120" x2="-16.9" y2="-117.57" stroke="orange" stroke-width="4" stroke-linecap="round"/>
<line x1="-16.9" y1="-117.57" x2="-32.44" y2="-110.48" stroke="orange" stroke-width="4" stroke-linecap="round"/>
<line x1="-32.44" y1="-110.48" x2="-45.34" y2="-99.29" stroke="orange" stroke-width="4" stroke-linecap="round"/>
<line x1="-45.34" y1="-99.29" x2="-54.58" y2="-84.92" stroke="orange" stroke-width="4" stroke-linecap="round"/>
<line x1="-54.58" y1="-84.92" x2="-59.39" y2="-68.54" stroke="orange" stroke-width="4" stroke-linecap="round"/>
<line x1="-59.39" y1="-68.54" x2="-59.39" y2="-51.46" stroke="orange" stroke-width="4" stroke-linecap="round"/>
<line x1="-59.39" y1="-51.46" x2="-54.58" y2="-35.08" stroke="orange" stroke-width="4" stroke-linecap="round"/>
<line x1="-54.58" y1="-35.08" x2="-45.34" y2="-20.71" stroke="orange" stroke-width="4" stroke-linecap="round"/>
<line x1="-45.34" y1="-20.71" x2="-32.44" y2="-9.52" stroke="orange" stroke-width="4" stroke-linecap="round"/>
<line x1="-32.44" y1="-9.52" x2="-16.9" y2="-2.43" stroke="orange" stroke-width="4" stroke-linecap="round"/>
<line x1="-16.9" y1="-2.43" x2="0" y2="0" stroke="orange" stroke-width="4" stroke-linecap="round"/>
<polygon points="0,0 -9,-5 -7,0 -9,5" fill="orange" stroke="orange" stroke-width="1"/>
</svg>
